<?xml version="1.0" encoding="utf-8"?><svg viewBox="0 0 24 24" xmlns="http://www.w3.org/2000/svg" xmlns:xlink="http://www.w3.org/1999/xlink"><style>:root>svg{display:none}:root>svg:target{display:block}</style><svg fill="none" viewBox="0 0 24 24" id="icn-mail" xmlns="http://www.w3.org/2000/svg"><mask id="aa" maskUnits="userSpaceOnUse" x="0" y="0" width="24" height="24"><path fill="#C4C4C4" d="M0 0h24v24H0z"/></mask><g mask="url(#aa)" fill="#A0A3A5"><path d="M22.49 16.537a1.71 1.71 0 0 0 .949-.815l-7.263-3.387-.272.4a26.18 26.18 0 0 1-.72 1.04 6.365 6.365 0 0 1-.808.863c-.35.322-.703.547-1.06.677l-.01.004-.01.004c-.358.13-.773.184-1.248.163a6.34 6.34 0 0 1-1.174-.143 26.288 26.288 0 0 1-1.22-.334l-.465-.132-3.387 7.264a1.71 1.71 0 0 0 1.25.015l15.438-5.619zM3.124 13.289a5.913 5.913 0 0 1-1.391-.527l2.949 8.1 2.984-6.4a384.97 384.97 0 0 0-4.542-1.173zM19.81 7.215a328.518 328.518 0 0 0-2.733 3.824l6.399 2.984-2.949-8.102a6.155 6.155 0 0 1-.716 1.294z"/><path d="M17.116 1.77L1.678 7.39c-.539.195-.887.528-1.044.997-.158.469-.138.976.06 1.522.161.44.527.847 1.099 1.221.571.374 1.127.629 1.667.765.3.081 1.197.319 2.694.712a774.382 774.382 0 0 1 3.445.914l.197.054.365.104c.287.081.524.145.711.192.188.047.41.094.67.142.259.048.494.07.706.064.212-.006.398-.038.559-.097l.01-.003.01-.004c.161-.059.325-.154.49-.285.166-.132.333-.3.5-.503.168-.204.308-.383.422-.54.113-.155.254-.357.421-.604a78.05 78.05 0 0 1 .33-.482l.793-1.124 2.874-4.071c.38-.543.65-1.128.81-1.756.16-.628.138-1.218-.063-1.77a1.713 1.713 0 0 0-.93-1.004 1.726 1.726 0 0 0-1.358-.064z"/></g></svg><svg fill="none" viewBox="0 0 24 24" id="icn-phone" xmlns="http://www.w3.org/2000/svg"><path d="M20 15.5c-1.25 0-2.45-.2-3.57-.57a1.02 1.02 0 0 0-1.02.24l-2.2 2.2a15.045 15.045 0 0 1-6.59-6.59l2.2-2.21a.96.96 0 0 0 .25-1A11.36 11.36 0 0 1 8.5 4c0-.55-.45-1-1-1H4c-.55 0-1 .45-1 1 0 9.39 7.61 17 17 17 .55 0 1-.45 1-1v-3.5c0-.55-.45-1-1-1zM19 12h2a9 9 0 0 0-9-9v2c3.87 0 7 3.13 7 7zm-4 0h2c0-2.76-2.24-5-5-5v2c1.66 0 3 1.34 3 3z" fill="#A0A3A5"/></svg></svg>