<svg width="270" height="23" viewBox="0 0 270 23" fill="none" xmlns="http://www.w3.org/2000/svg"><path d="M5.02 18.426h7.56V22H.713V.672H5.02v17.754zm23.165-5.654h-6.709v5.654h7.94V22H17.168V.672h12.217V4.26h-7.91V9.3h6.709v3.471zm11.826.996l-1.699 2.138V22h-4.306V.672h4.306v9.302l1.363-2.3 3.97-7.002h5.273l-6.109 9.375L49.02 22h-5.112l-3.897-8.232zm27.252-.513c0 2.861-.679 5.083-2.036 6.665-1.348 1.582-3.223 2.373-5.625 2.373-2.393 0-4.273-.781-5.64-2.344-1.367-1.572-2.06-3.77-2.08-6.592V9.71c0-2.93.679-5.215 2.036-6.856C55.276 1.204 57.16.38 59.572.38c2.373 0 4.244.81 5.61 2.432 1.368 1.61 2.061 3.877 2.08 6.796v3.648zM62.942 9.68c0-1.924-.274-3.355-.82-4.292-.548-.938-1.397-1.407-2.55-1.407-1.142 0-1.987.455-2.534 1.363-.547.898-.83 2.27-.85 4.116v3.794c0 1.865.279 3.242.836 4.13.556.88 1.416 1.32 2.578 1.32 1.123 0 1.958-.43 2.505-1.29.547-.87.825-2.212.835-4.028V9.68zm16.763 4.907h-7.163V11.13h7.163v3.457zm155.882 5.303c0-.664.22-1.211.66-1.641.449-.43 1.03-.645 1.743-.645.693 0 1.269.215 1.728.645.459.42.689.967.689 1.64 0 .684-.235 1.236-.703 1.656-.459.41-1.031.615-1.714.615-.694 0-1.27-.21-1.729-.63-.449-.42-.674-.966-.674-1.64zm18.316-9.742l-1.377-.117c-1.132 0-1.899.498-2.299 1.494V22h-4.161V6.15h3.912l.117 1.714c.654-1.338 1.557-2.007 2.71-2.007.468 0 .849.064 1.142.19l-.044 4.102zm12.032 10.4c-.859 1.163-2.012 1.744-3.457 1.744-1.455 0-2.559-.498-3.311-1.494-.752-1.006-1.128-2.466-1.128-4.38V6.15h4.146v10.371c.019 1.543.532 2.315 1.538 2.315.947 0 1.631-.41 2.051-1.23V6.15h4.175V22h-3.897l-.117-1.45z" fill="#000"/><path d="M89.759 18.426h7.558V22H85.452V.672h4.307v17.754zm26.226-5.171c0 2.861-.679 5.083-2.036 6.665-1.348 1.582-3.223 2.373-5.625 2.373-2.393 0-4.273-.781-5.64-2.344-1.367-1.572-2.061-3.77-2.08-6.592V9.71c0-2.93.679-5.215 2.036-6.856 1.357-1.65 3.242-2.475 5.654-2.475 2.373 0 4.243.81 5.611 2.432 1.367 1.61 2.06 3.877 2.08 6.796v3.648zm-4.322-3.574c0-1.924-.273-3.355-.82-4.292-.547-.938-1.396-1.407-2.549-1.407-1.142 0-1.987.455-2.534 1.363-.547.898-.83 2.27-.849 4.116v3.794c0 1.865.278 3.242.835 4.13.556.88 1.416 1.32 2.578 1.32 1.123 0 1.958-.43 2.505-1.29.546-.87.825-2.212.834-4.028V9.68zm24.015 9.902c-.831.898-1.851 1.577-3.062 2.036-1.201.45-2.52.674-3.955.674-2.451 0-4.356-.757-5.713-2.27-1.357-1.524-2.056-3.736-2.095-6.636V9.549c0-2.94.64-5.2 1.919-6.782 1.289-1.592 3.164-2.388 5.625-2.388 2.315 0 4.058.571 5.23 1.714 1.181 1.142 1.865 2.934 2.051 5.376h-4.19c-.117-1.358-.4-2.28-.85-2.769-.449-.498-1.152-.747-2.109-.747-1.162 0-2.007.425-2.534 1.275-.527.85-.801 2.202-.82 4.057v3.867c0 1.944.288 3.36.864 4.248.586.88 1.543 1.319 2.871 1.319.85 0 1.538-.171 2.065-.513l.381-.264v-3.91h-3.017v-3.253h7.339v8.804zM145.321 22h-4.306V.672h4.306V22zm14.727-5.596c0-.869-.224-1.523-.673-1.963-.44-.449-1.246-.913-2.417-1.391-2.139-.81-3.677-1.758-4.615-2.842-.937-1.094-1.406-2.383-1.406-3.867 0-1.797.635-3.237 1.904-4.321 1.28-1.094 2.901-1.641 4.864-1.641 1.308 0 2.475.278 3.501.835a5.651 5.651 0 0 1 2.358 2.329c.557 1.006.835 2.148.835 3.428h-4.292c0-.996-.215-1.753-.645-2.27-.419-.528-1.03-.792-1.831-.792-.752 0-1.337.225-1.757.674-.42.44-.63 1.035-.63 1.787 0 .586.234 1.118.703 1.597.469.469 1.299.957 2.49 1.465 2.08.752 3.589 1.674 4.526 2.768.948 1.094 1.421 2.486 1.421 4.175 0 1.855-.59 3.306-1.772 4.35-1.182 1.045-2.788 1.568-4.819 1.568-1.377 0-2.632-.283-3.765-.85a6.417 6.417 0 0 1-2.666-2.431c-.635-1.055-.952-2.3-.952-3.736h4.321c0 1.23.239 2.124.718 2.681.478.557 1.26.835 2.344.835 1.503 0 2.255-.796 2.255-2.388zm23.106-12.143h-5.273V22h-4.321V4.26h-5.186V.673h14.78V4.26zM192.227 22h-4.307V.672h4.307V22zm20.176-7.104c-.107 2.431-.791 4.272-2.051 5.522-1.259 1.25-3.037 1.875-5.332 1.875-2.412 0-4.262-.791-5.551-2.373-1.28-1.592-1.919-3.858-1.919-6.797V9.534c0-2.93.664-5.185 1.992-6.767 1.328-1.592 3.174-2.388 5.537-2.388 2.324 0 4.087.65 5.288 1.948 1.211 1.299 1.899 3.164 2.065 5.596h-4.321c-.039-1.504-.273-2.54-.703-3.106-.42-.576-1.196-.864-2.329-.864-1.152 0-1.968.405-2.446 1.216-.479.8-.733 2.124-.762 3.97v4.028c0 2.12.234 3.574.703 4.365.479.791 1.294 1.187 2.446 1.187 1.133 0 1.914-.274 2.344-.82.43-.557.674-1.558.732-3.004h4.307zm13.76 1.508c0-.869-.224-1.523-.674-1.963-.439-.449-1.245-.913-2.417-1.391-2.138-.81-3.676-1.758-4.614-2.842-.937-1.094-1.406-2.383-1.406-3.867 0-1.797.635-3.237 1.904-4.321 1.28-1.094 2.901-1.641 4.864-1.641 1.308 0 2.475.278 3.501.835a5.651 5.651 0 0 1 2.358 2.329c.557 1.006.835 2.148.835 3.428h-4.292c0-.996-.215-1.753-.645-2.27-.42-.528-1.03-.792-1.831-.792-.752 0-1.338.225-1.758.674-.419.44-.629 1.035-.629 1.787 0 .586.234 1.118.703 1.597.468.469 1.299.957 2.49 1.465 2.08.752 3.589 1.674 4.526 2.768.948 1.094 1.421 2.486 1.421 4.175 0 1.855-.591 3.306-1.772 4.35-1.182 1.045-2.788 1.568-4.82 1.568-1.377 0-2.631-.283-3.764-.85a6.417 6.417 0 0 1-2.666-2.431c-.635-1.055-.952-2.3-.952-3.736h4.321c0 1.23.239 2.124.718 2.681.478.557 1.259.835 2.343.835 1.504 0 2.256-.796 2.256-2.388z" fill="#DE1832"/></svg>